<svg enable-background="new 0 0 100 100" height="100" viewBox="0 0 100 100" width="100" xmlns="http://www.w3.org/2000/svg"><path d="m58.886 34.444c0-2.577 2.09-4.667 4.666-4.667h4.224v-10.887h-57.776v45.554h48.886z" style="fill:#fadf7e;stroke:#335c5f;stroke-width:1.5;stroke-linecap:round;stroke-linejoin:round;stroke-miterlimit:10"/><path d="m65.423 18.89v8.535h-1.871c-3.872 0-7.019 3.149-7.019 7.02v29.999h2.353v-30c0-2.576 2.09-4.666 4.666-4.666h4.224v-10.888z" fill="#d8c26f"/><path d="m90 34.444c0-2.579-2.092-4.667-4.669-4.667h-21.779c-2.576 0-4.666 2.09-4.666 4.666v.001 41.998c0 2.581 2.094 4.668 4.666 4.668h21.779c2.577 0 4.669-2.087 4.669-4.668z" style="fill:#e9eaef;stroke:#335c5f;stroke-width:1.5;stroke-linecap:round;stroke-linejoin:round;stroke-miterlimit:10"/><path d="m62.219 36.891h24.444v35.553h-24.444z" style="fill:#46c6f1;stroke:#335c5f;stroke-width:1.5;stroke-linecap:round;stroke-linejoin:round;stroke-miterlimit:10"/><path d="m84.898 36.891h1.765v35.553h-1.765z" fill="#3eaed3"/><path d="m76.777 32.888h-4.665z" style="fill:none;stroke:#335c5f;stroke-width:1.5;stroke-linecap:round;stroke-linejoin:round;stroke-miterlimit:10"/><path d="m80.665 32.888h-1.553z" style="fill:none;stroke:#335c5f;stroke-width:1.5;stroke-linecap:round;stroke-linejoin:round;stroke-miterlimit:10"/><path d="m76.388 76.775c0 1.072-.869 1.947-1.945 1.947-1.073 0-1.942-.875-1.942-1.947 0-1.073.869-1.944 1.942-1.944 1.076 0 1.945.871 1.945 1.944z" style="fill:none;stroke:#335c5f;stroke-width:1.5;stroke-linecap:round;stroke-linejoin:round;stroke-miterlimit:10"/><path d="m79.996 56.89h3.335v12.221h-3.335z" style="fill:#9dd1d9;stroke:#335c5f;stroke-width:1.5;stroke-linecap:round;stroke-linejoin:round;stroke-miterlimit:10"/><path d="m81.566 56.89h1.765v12.221h-1.765z" fill="#89b7bf"/><path d="m65.555 56.89h11.108v12.221h-11.108z" style="fill:#9dd1d9;stroke:#335c5f;stroke-width:1.5;stroke-linecap:round;stroke-linejoin:round;stroke-miterlimit:10"/><path d="m74.898 56.89h1.765v12.221h-1.765z" fill="#89b7bf"/><path d="m65.555 44.668h17.776v8.889h-17.776z" style="fill:#9dd1d9;stroke:#335c5f;stroke-width:1.5;stroke-linecap:round;stroke-linejoin:round;stroke-miterlimit:10"/><path d="m81.566 44.668h1.765v8.889h-1.765z" fill="#89b7bf"/><path d="m62.219 36.891h24.444v4.444h-24.444z" style="fill:#fadf7e;stroke:#335c5f;stroke-width:1.5;stroke-linecap:round;stroke-linejoin:round;stroke-miterlimit:10"/><path d="m84.898 36.891h1.765v4.444h-1.765z" fill="#d8c26f"/><path d="m10 10h44.444v4.444h-44.444z" style="fill:#e9eaef;stroke:#335c5f;stroke-width:1.5;stroke-linecap:round;stroke-linejoin:round;stroke-miterlimit:10"/><path d="m63.331 10h4.444v4.444h-4.444z" style="fill:#fadf7e;stroke:#335c5f;stroke-width:1.5;stroke-linecap:round;stroke-linejoin:round;stroke-miterlimit:10"/><path d="m65.423 10h2.353v4.444h-2.353z" fill="#d8c26f"/><path d="m58.886 10h4.445v4.444h-4.445z" style="fill:#fadf7e;stroke:#335c5f;stroke-width:1.5;stroke-linecap:round;stroke-linejoin:round;stroke-miterlimit:10"/><path d="m54.441 10h4.444v4.444h-4.444z" style="fill:#fadf7e;stroke:#335c5f;stroke-width:1.5;stroke-linecap:round;stroke-linejoin:round;stroke-miterlimit:10"/><path d="m10 14.444h57.775v4.442h-57.775z" style="fill:#9dd1d9;stroke:#335c5f;stroke-width:1.5;stroke-linecap:round;stroke-linejoin:round;stroke-miterlimit:10"/><path d="m65.423 14.444h2.353v4.442h-2.353z" fill="#89b7bf"/><path d="m74.442 81.11v4.444c0 2.454-1.99 4.445-4.444 4.445l-22.22-.004c-4.909 0-8.891-3.981-8.891-8.886v-16.666 16.667c0 4.904 3.982 8.886 8.891 8.886l22.22.004c2.454 0 4.444-1.991 4.444-4.445z" style="fill:none;stroke:#335c5f;stroke-width:1.5;stroke-linecap:round;stroke-linejoin:round;stroke-miterlimit:10"/><path d="m14.443 23.333h8.891v3.334h-8.891z" style="fill:#9dd1d9;stroke:#335c5f;stroke-width:1.5;stroke-linecap:round;stroke-linejoin:round;stroke-miterlimit:10"/><path d="m27.778 23.333h17.775v3.334h-17.775z" style="fill:#9dd1d9;stroke:#335c5f;stroke-width:1.5;stroke-linecap:round;stroke-linejoin:round;stroke-miterlimit:10"/><path d="m23.595 30.001h22.221v3.333h-22.221z" style="fill:#9dd1d9;stroke:#335c5f;stroke-width:1.5;stroke-linecap:round;stroke-linejoin:round;stroke-miterlimit:10"/><path d="m23.333 36.668h4.445v3.333h-4.445z" style="fill:#9dd1d9;stroke:#335c5f;stroke-width:1.5;stroke-linecap:round;stroke-linejoin:round;stroke-miterlimit:10"/><path d="m32.224 36.668h22.22v3.333h-22.22z" style="fill:#9dd1d9;stroke:#335c5f;stroke-width:1.5;stroke-linecap:round;stroke-linejoin:round;stroke-miterlimit:10"/><path d="m23.595 43.334h17.778v3.333h-17.778z" style="fill:#9dd1d9;stroke:#335c5f;stroke-width:1.5;stroke-linecap:round;stroke-linejoin:round;stroke-miterlimit:10"/><path d="m14.443 50h4.445v3.333h-4.445z" style="fill:#9dd1d9;stroke:#335c5f;stroke-width:1.5;stroke-linecap:round;stroke-linejoin:round;stroke-miterlimit:10"/><path d="m23.333 50h22.223v3.333h-22.223z" style="fill:#9dd1d9;stroke:#335c5f;stroke-width:1.5;stroke-linecap:round;stroke-linejoin:round;stroke-miterlimit:10"/><path d="m50.002 50h4.442v3.333h-4.442z" style="fill:#9dd1d9;stroke:#335c5f;stroke-width:1.5;stroke-linecap:round;stroke-linejoin:round;stroke-miterlimit:10"/><path d="m18.888 56.665h39.998v3.335h-39.998z" style="fill:#9dd1d9;stroke:#335c5f;stroke-width:1.5;stroke-linecap:round;stroke-linejoin:round;stroke-miterlimit:10"/><path d="m45.816 43.334h13.07v3.333h-13.07z" style="fill:#9dd1d9;stroke:#335c5f;stroke-width:1.5;stroke-linecap:round;stroke-linejoin:round;stroke-miterlimit:10"/><path d="m62.198 30.001h-11.934v3.333h8.771c.392-1.598 1.601-2.858 3.163-3.333z" style="fill:#9dd1d9;stroke:#335c5f;stroke-width:1.5;stroke-linecap:round;stroke-linejoin:round;stroke-miterlimit:10"/><path d="m56.533 43.334h2.353v3.333h-2.353z" fill="#89b7bf"/><path d="m56.629 33.334h2.406c.392-1.598 1.601-2.858 3.163-3.333h-4.075c-.77.939-1.294 2.082-1.494 3.333z" fill="#89b7bf"/><path d="m56.533 56.665h2.353v3.335h-2.353z" fill="#89b7bf"/><path d="m58.886 34.444c0-2.577 2.09-4.667 4.666-4.667h4.224v-10.887h-57.776v45.554h48.886z" style="fill:none;stroke:#335c5f;stroke-width:1.5;stroke-linecap:round;stroke-linejoin:round;stroke-miterlimit:10"/><path d="m10 14.444h57.775v4.442h-57.775z" style="fill:none;stroke:#335c5f;stroke-width:1.5;stroke-linecap:round;stroke-linejoin:round;stroke-miterlimit:10"/><path d="m18.888 56.665h39.998v3.335h-39.998z" style="fill:none;stroke:#335c5f;stroke-width:1.5;stroke-linecap:round;stroke-linejoin:round;stroke-miterlimit:10"/><path d="m45.816 43.334h13.07v3.333h-13.07z" style="fill:none;stroke:#335c5f;stroke-width:1.5;stroke-linecap:round;stroke-linejoin:round;stroke-miterlimit:10"/><path d="m62.198 30.001h-11.934v3.333h8.771c.392-1.598 1.601-2.858 3.163-3.333z" style="fill:none;stroke:#335c5f;stroke-width:1.5;stroke-linecap:round;stroke-linejoin:round;stroke-miterlimit:10"/><path d="m63.331 10h4.444v4.444h-4.444z" style="fill:none;stroke:#335c5f;stroke-width:1.5;stroke-linecap:round;stroke-linejoin:round;stroke-miterlimit:10"/><path d="m20.98 23.333h2.353v3.334h-2.353z" fill="#89b7bf"/><path d="m52.092 36.666h2.353v3.334h-2.353z" fill="#89b7bf"/><path d="m25.426 36.666h2.352v3.334h-2.352z" fill="#89b7bf"/><path d="m43.204 49.999h2.353v3.334h-2.353z" fill="#89b7bf"/><path d="m16.536 49.999h2.352v3.334h-2.352z" fill="#89b7bf"/><path d="m39.021 43.333h2.353v3.334h-2.353z" fill="#89b7bf"/><path d="m52.092 49.999h2.353v3.334h-2.353z" fill="#89b7bf"/><path d="m43.463 30h2.353v3.334h-2.353z" fill="#89b7bf"/><path d="m43.2 23.333h2.354v3.334h-2.354z" fill="#89b7bf"/><g stroke="#335c5f" stroke-linecap="round" stroke-linejoin="round" stroke-miterlimit="10" stroke-width="1.5"><path d="m14.443 23.333h8.891v3.334h-8.891z" fill="none"/><path d="m27.778 23.333h17.775v3.334h-17.775z" fill="none"/><path d="m23.595 30.001h22.221v3.333h-22.221z" fill="none"/><path d="m23.333 36.668h4.445v3.333h-4.445z" fill="none"/><path d="m32.224 36.668h22.22v3.333h-22.22z" fill="none"/><path d="m23.595 43.334h17.778v3.333h-17.778z" fill="none"/><path d="m14.443 50h4.445v3.333h-4.445z" fill="none"/><path d="m23.333 50h22.223v3.333h-22.223z" fill="none"/><path d="m50.002 50h4.442v3.333h-4.442z" fill="none"/><path d="m79.996 56.89h3.335v12.221h-3.335z" fill="none"/><path d="m65.555 56.89h11.108v12.221h-11.108z" fill="none"/><path d="m65.555 44.668h17.776v8.889h-17.776z" fill="none"/><path d="m62.219 36.891h24.444v35.553h-24.444z" fill="none"/><path d="m62.219 36.891h24.444v4.444h-24.444z" fill="none"/></g></svg>