<svg viewBox="0 0 64 64" xmlns="http://www.w3.org/2000/svg"><path d="m63 11v50a2.006 2.006 0 0 1 -2 2h-58a2.006 2.006 0 0 1 -2-2v-50z" fill="#dfe1ea"/><path d="m61 1a2.006 2.006 0 0 1 2 2v8h-62v-8a2.006 2.006 0 0 1 2-2z" fill="#adb2c7"/><path d="m39.6 21c-7.6 0-7.6-2-15.2-2s-7.6 2-15.2 2a26.743 26.743 0 0 1 -8.2-1.156v8a26.743 26.743 0 0 0 8.2 1.156c7.6 0 7.6-2 15.2-2s7.6 2 15.2 2 7.6-2 15.2-2a26.787 26.787 0 0 1 8.2 1.157v-8a26.787 26.787 0 0 0 -8.2-1.157c-7.6 0-7.6 2-15.2 2z" fill="#cdd2e1"/><path d="m1 11v8.844a26.743 26.743 0 0 0 8.2 1.156c7.6 0 7.6-2 15.2-2s7.6 2 15.2 2 7.6-2 15.2-2a26.787 26.787 0 0 1 8.2 1.157v-9.157z" fill="#f6fafd"/><path d="m61.054 16h-22.108a.945.945 0 0 0 -.946.946v20.108a.945.945 0 0 1 -.946.946h-3.108a.945.945 0 0 0 -.946.946v23.108a.945.945 0 0 0 .946.946h22.108a.945.945 0 0 0 .946-.946v-20.108a.945.945 0 0 1 .946-.946h3.108a.945.945 0 0 0 .946-.946v-23.108a.945.945 0 0 0 -.946-.946z" fill="#adb2c7"/><circle cx="20" cy="31" fill="#adb2c7" r="13"/><path d="m38 23h20v14h-20z" fill="#fff"/><path d="m38 15h20v8h-20z" fill="#ffa426"/><path d="m41 26h14v8h-14z" fill="#dfe1ea"/><path d="m33 45h20v14h-20z" fill="#fff"/><path d="m33 37h20v8h-20z" fill="#8dd5f6"/><path d="m36 48h14v8h-14z" fill="#dfe1ea"/><g fill="#fff"><circle cx="18" cy="28" r="13"/><path d="m5 5h2v2h-2z"/><path d="m14 5h45v2h-45z"/><path d="m41 18h2v2h-2z"/><path d="m45 18h2v2h-2z"/><path d="m40 40h2v2h-2z"/><path d="m36 40h2v2h-2z"/></g><path d="m61 0h-58a3 3 0 0 0 -3 3v58a3 3 0 0 0 3 3h58a3 3 0 0 0 3-3v-58a3 3 0 0 0 -3-3zm-58 2h58a1 1 0 0 1 1 1v7h-60v-7a1 1 0 0 1 1-1zm58 60h-58a1 1 0 0 1 -1-1v-49h60v49a1 1 0 0 1 -1 1z"/><path d="m18 42a14 14 0 1 0 -14-14 14.015 14.015 0 0 0 14 14zm0-26a12 12 0 1 1 -12 12 12.013 12.013 0 0 1 12-12z"/><path d="m14.707 32.293-4.293-4.293 4.293-4.293-1.414-1.414-5 5a1 1 0 0 0 0 1.414l5 5z"/><path d="m22.707 33.707 5-5a1 1 0 0 0 0-1.414l-5-5-1.414 1.414 4.293 4.293-4.293 4.293z"/><path d="m58 14h-20a1 1 0 0 0 -1 1v21h-4a1 1 0 0 0 -1 1v22a1 1 0 0 0 1 1h20a1 1 0 0 0 1-1v-21h4a1 1 0 0 0 1-1v-22a1 1 0 0 0 -1-1zm-1 2v6h-18v-6zm-23 42v-12h18v12zm18-14h-18v-6h18zm1-8h-14v-12h18v12z"/><path d="m7 56h21v2h-21z"/><path d="m7 51h21v2h-21z"/><path d="m15 46h13v2h-13z"/><path d="m7 46h4v2h-4z"/><path d="m9 5h2v2h-2z"/><path d="m11.917 27h12.166v2h-12.166z" transform="matrix(.1645656 -.98636614 .98636614 .1645656 -12.58 41.147)"/></svg>